<?xml version="1.0" encoding="UTF-8"?><svg id="Layer_1" xmlns="http://www.w3.org/2000/svg" viewBox="0 0 62.8 62.37"><defs><style>.cls-1{fill:#d84d42;}.cls-2{fill:#fff;}.cls-3{fill:#132b23;}</style></defs><path class="cls-3" d="M22.02,60.95c-4.64-1.43-8.83-3.92-12.34-7.22-1.42-1.33-2.68-2.78-3.83-4.35-1.71-2.35-3.06-4.91-4.04-7.65-.5-1.41-.87-2.82-1.19-4.27-.27-1.23-.43-2.43-.54-3.68l-.07-1.36v-1.91s.03-1.24.03-1.24c.11-1.5.29-2.97.6-4.45,1.51-7.24,5.59-13.66,11.41-18.2S24.44-.07,31.57,0c2.71.03,5.4.34,8.02,1.05,4.34,1.18,8.35,3.24,11.81,6.12l1.86,1.66,1.1,1.12c1.17,1.19,2.19,2.51,3.13,3.91,2.03,3,3.52,6.34,4.39,9.86,1.13,4.56,1.21,9.15.28,13.75s-2.7,8.48-5.35,12.07c-5.25,7.13-13.36,11.8-22.22,12.67-4.22.41-8.5,0-12.58-1.26ZM52.82,52.88c1.41-1.36,2.65-2.85,3.76-4.43,4.78-6.8,6.48-15.34,4.77-23.47-.89-4.23-2.67-8.18-5.22-11.65-.69-.93-1.37-1.83-2.18-2.65l-1.85-1.85c-2.34-2.16-5-3.93-7.9-5.27-2.59-1.2-5.35-1.99-8.17-2.43-1.31-.2-2.57-.34-3.88-.33h-1.91c-1.47.02-2.88.22-4.33.47-5.93,1.03-11.46,3.93-15.77,8.1C3.57,15.7.19,24.44.88,33.55c.19,2.57.73,5.11,1.57,7.54,3.29,9.52,11.29,16.86,21.01,19.43,7.73,2.05,15.93,1.07,22.91-2.84,2.35-1.32,4.5-2.92,6.45-4.81Z"/><path class="cls-3" d="M36.6,60.17c-1.55.28-3.03.39-4.57.43-5.44.12-10.69-1.21-15.42-3.91-6.35-3.62-11.22-9.52-13.46-16.5-1.89-5.86-1.87-12.18.03-18.03C6.1,13.15,13.35,5.96,22.38,3.1c2.75-.87,5.59-1.31,8.46-1.36,1.29-.02,2.51.04,3.8.17,1.17.11,2.29.32,3.44.58,9.26,2.09,17.05,8.72,20.72,17.46,2.73,6.5,2.98,13.83.76,20.52-1.38,4.15-3.67,7.9-6.7,11.03l-.82.82c-4.24,4.06-9.61,6.82-15.44,7.86ZM25.4,59.47c4.47.91,9.05.82,13.42-.33,6.85-1.8,12.79-6.02,16.77-11.86,2.01-2.95,3.43-6.27,4.22-9.75.46-2.03.68-4.05.7-6.13.03-4.13-.83-8.22-2.55-11.98-1.69-3.7-4.12-7.01-7.15-9.73-6.43-5.77-14.89-8.3-23.45-7.15-2.14.29-4.14.78-6.16,1.53-4.34,1.62-8.23,4.26-11.35,7.68-3.71,4.06-6.21,9.08-7.17,14.48-1.57,8.87,1.13,17.96,7.27,24.54,4.09,4.38,9.48,7.49,15.43,8.7Z"/><path class="cls-3" d="M46.3,46.66c-5.12,4.86-12.19,6.89-19.14,5.53-3.85-.76-7.39-2.53-10.28-5.16l-1.54-1.54c-6.22-6.91-7.33-16.97-2.59-25.03.73-1.25,1.58-2.39,2.53-3.47.53-.6,1.08-1.13,1.67-1.67,1.3-1.19,2.72-2.17,4.26-3,3.11-1.68,6.55-2.51,10.09-2.52,2.56,0,5.06.39,7.47,1.27,2.73.99,5.21,2.52,7.34,4.49,1.89,1.75,3.45,3.86,4.61,6.17,1.39,2.78,2.13,5.81,2.23,8.92.18,5.78-2.06,11.34-6.07,15.46l-.58.57ZM25.39,51.08c7.03,2.1,14.64.38,20.06-4.54l1.52-1.52c7.22-8.06,7.07-20.09-.33-27.99-2.17-2.32-4.89-4.15-7.88-5.27-3.64-1.37-7.73-1.67-11.52-.91-5.9,1.18-10.92,4.85-13.94,10.02-3.62,6.2-3.73,13.73-.36,20.04,1.05,1.97,2.39,3.71,4,5.26,2.37,2.28,5.28,3.97,8.45,4.92Z"/><path class="cls-3" d="M45.82,52.95c-.55-.24-.86-.23-1.32.13l.92,1.44-.75.46-2.22-3.42,1.88-1.17c.26-.16.54-.25.82-.31.67,0,1.21.66,1.13,1.28-.03.28-.22.56-.5.81.32.02.62.06.91.19l1.22.55-.88.58-1.23-.53ZM44.98,51.99c.18-.11.32-.24.46-.37.06-.22,0-.42-.15-.58-.1-.11-.36-.2-.53-.1l-1.17.7.55.87.84-.52Z"/><polygon class="cls-3" points="13.97 48.63 13.21 49.4 12.17 50.49 11.55 49.94 12.37 49.1 13.25 48.17 14.13 47.25 14.36 47.02 14.95 47.6 14.49 50.79 16.3 48.84 16.93 49.39 14.16 52.34 13.5 51.77 13.97 48.63"/><polygon class="cls-3" points="31.14 57.17 31.18 58.34 30.37 58.37 30.22 54.32 31.11 54.3 32.99 56.93 32.91 54.28 33.73 54.26 33.77 55.67 33.82 56.93 33.87 58.28 32.96 58.3 31.11 55.72 31.14 57.17"/><path class="cls-3" d="M37.73,6.99c.46.29.62.74.45,1.21-.18.53-.67.86-1.24.74l-2.28-.46.87-3.91,1.92.43c.7.16,1.13.7.94,1.33-.08.28-.33.51-.66.65ZM37.1,6.52c.3.06.49-.17.53-.39.04-.25-.13-.43-.39-.49l-1.05-.24-.2.9,1.12.22ZM36.78,8.23c.34.07.58-.09.64-.37.07-.29-.08-.57-.39-.65l-1.21-.29-.24,1.04,1.19.26Z"/><path class="cls-3" d="M45.63,13.2l-.83-.52v-1.53c0-.47-.2-.66-.63-.87l-.9,1.38-.69-.43,2.21-3.36,1.47.95c.27.17.5.37.7.61.28.51.14,1.1-.32,1.47-.31.26-.74.25-1.17.1.06.22.17.47.16.69l-.02,1.51ZM46.22,10.13c.12-.23.07-.46-.12-.59l-1-.66-.56.85.95.61c.11.07.3.12.43.08.1-.03.23-.16.3-.29Z"/><path class="cls-3" d="M23.85,56.15c-.44,1-1.79.8-2.66.25-.56-.36-.82-1.02-.6-1.65l.81.22c-.09.44.09.8.46.99.29.15.6.24.92.12.15-.06.27-.2.29-.36.02-.15-.1-.31-.24-.41l-1.14-.79c-.39-.27-.52-.75-.38-1.19s.51-.74,1-.75c.6-.01,1.21.2,1.67.57.41.32.55.82.38,1.31l-.82-.29c.01-.24-.03-.48-.22-.63-.4-.3-1.06-.37-1.18-.07-.21.49.86.78,1.5,1.42.35.35.41.83.22,1.26Z"/><path class="cls-3" d="M50.51,14.27c-.7,1.12-1.98,1.62-3.07.79-.62-.47-.96-1.25-.72-2.02.2-.64.67-1.18,1.24-1.49.76-.41,1.56-.23,2.18.32.7.63.88,1.58.37,2.41ZM48.88,14.63c.49-.23.87-.62,1.07-1.1.18-.41.06-.83-.26-1.12-.26-.24-.61-.42-.97-.3-.51.17-.93.56-1.16,1.04s-.11.98.27,1.3c.3.25.67.36,1.05.18Z"/><path class="cls-3" d="M26.61,8.75l-1.76.39-.84-3.88,1.78-.38c.64-.14,1.25.12,1.59.68.33.55.48,1.19.42,1.83-.06.68-.5,1.21-1.2,1.37ZM26.57,8.04c.28-.07.38-.32.42-.56.03-.5-.05-1-.27-1.45-.18-.32-.47-.55-.85-.48l-.95.19.57,2.55,1.07-.26Z"/><path class="cls-3" d="M40.24,55.94v.98s-.89.32-.89.32l.05-1.53.04-1.31.04-1.52.89-.36.96.97,2.15,2.14-.89.38-.7-.72-1.65.64ZM41.34,54.76l-.81-.87-.28-.28v1.59s1.09-.43,1.09-.43Z"/><path class="cls-3" d="M27.82,57.19l-1.76-.32-.5.85-.93-.17,2.34-3.7.95.16,1.04,4.28-.93-.14-.22-.97ZM27.64,56.44l-.36-1.57-.82,1.36,1.18.21Z"/><path class="cls-3" d="M49.91,49.93l-.87.84.35.89-.67.62-1.58-4.06.71-.66,4.03,1.73-.65.67-.89-.41-.42.38ZM49.65,49.24l-1.53-.67.64,1.51.88-.83Z"/><path class="cls-3" d="M20.04,51.37l.75.44-1.5,2.4c-.32.51-.89.71-1.47.54-.46-.14-.87-.39-1.23-.7-.5-.44-.61-1.11-.25-1.69l1.45-2.36.74.45-1.32,2.14c-.14.23-.24.54-.12.8.17.36.59.61.98.63.26.01.41-.21.56-.38l1.42-2.27Z"/><polygon class="cls-3" points="51.28 19.77 50.69 18.93 51.62 16.95 50.64 16.82 49.68 17.49 49.2 16.84 52.5 14.53 52.96 15.16 51.5 16.22 53.88 16.46 54.44 17.31 52.41 17.06 51.28 19.77"/><path class="cls-3" d="M18.34,12.32c-.61.23-1.23.04-1.64-.5l.65-.52c.33.42.79.45,1.18.17.21-.15.39-.35.4-.62,0-.25-.17-.46-.44-.43-.8.08-1.68.77-2.39.11-.39-.37-.48-.95-.13-1.4s.87-.8,1.45-.88c.45-.07.86.15,1.12.53l-.68.46c-.16-.21-.37-.31-.62-.24-.47.13-.88.57-.68.86.28.4,1.17-.2,1.99-.27.41-.03.8.24.98.53.25.38.28.85.06,1.23-.28.46-.74.79-1.24.97Z"/><polygon class="cls-3" points="55.59 40.39 54.08 41.48 54.65 39.73 53.16 38.62 55 38.61 55.58 36.89 56.16 38.6 57.96 38.61 56.53 39.7 57.13 41.47 55.59 40.39"/><path class="cls-3" d="M11.95,17.21l.5.87-.52.7-2.23-3.7.53-.7,4.22,1.21-.56.7-.93-.29-1.01,1.23ZM12.25,15.76l-1.52-.44.82,1.29.7-.84Z"/><polygon class="cls-3" points="57.79 26.37 53.92 27.28 53.73 26.51 55.44 26.11 55.07 24.59 53.36 24.98 53.17 24.21 57.06 23.3 57.25 24.06 55.71 24.42 56.09 25.96 57.6 25.61 57.79 26.37"/><polygon class="cls-3" points="7.34 40.86 5.85 41.94 6.41 40.2 4.92 39.1 6.74 39.1 7.31 37.36 7.91 39.1 9.72 39.1 8.27 40.17 8.86 41.93 7.34 40.86"/><path class="cls-3" d="M41.28,10.57l.05-.97-1.48-.66-.67.69-.78-.36,3.04-3.04.79.35-.07,2.33-.04,1.43-.03.58-.81-.35ZM41.35,8.88l.1-1.59-1.1,1.14,1,.46Z"/><path class="cls-3" d="M22.8,8.94l-1.52.6.05.98-.8.34-.07-4.31.82-.34.48.51,2.51,2.54-.82.35-.66-.68ZM22.28,8.41l-.45-.51-.62-.64.04,1.56,1.03-.42Z"/><path class="cls-3" d="M31.43,7.37l-1.64.02-.31.91-.86.02.75-2.06.7-1.95h.88s1.74,3.9,1.74,3.9l-.89.02-.36-.86ZM31.11,6.69l-.59-1.45-.5,1.49,1.1-.04Z"/><path class="cls-3" d="M53.02,23.59l-.36-.82.69-.69-.61-1.41-1,.08-.36-.77,4.29-.27.35.77-.88.92-.99,1.04-1.12,1.15ZM53.89,21.58l1.12-1.11-1.58.13.46.98Z"/><path class="cls-3" d="M8.78,26.86l-.18.79-3.97-.91.44-1.83c.08-.34.28-.62.56-.8.44-.17.91-.15,1.33.05.39.23.66.66.56,1.12l-.26,1.22,1.52.35ZM6.59,26.37l.19-.86c.08-.34-.17-.61-.47-.66-.32-.06-.57.15-.65.49l-.18.78,1.11.25Z"/><polygon class="cls-3" points="37.52 57.66 36.66 57.84 36.02 54.54 34.75 54.8 34.6 54.12 38.01 53.4 38.16 54.09 36.88 54.36 37.52 57.66"/><polygon class="cls-3" points="9.87 23.01 6.72 21.81 6.28 22.93 5.66 22.67 6.8 19.72 7.42 19.95 7.01 21.04 10.16 22.26 9.87 23.01"/><polygon class="cls-3" points="17.01 13.25 14.91 15.12 12.25 12.17 12.85 11.63 15.05 14.07 16.58 12.74 17.01 13.25"/><polygon class="cls-3" points="10.73 21.1 10 20.81 10.32 20.09 11.02 20.39 10.73 21.1"/><path class="cls-2" d="M44.98,51.99l-.84.52-.55-.87,1.17-.7c.17-.1.42,0,.53.1.16.17.22.36.15.58-.14.13-.29.26-.46.37Z"/><path class="cls-2" d="M36.78,8.23l-1.19-.26.24-1.04,1.21.29c.3.07.45.35.39.65-.06.27-.31.44-.64.37Z"/><path class="cls-2" d="M37.1,6.52l-1.12-.22.2-.9,1.05.24c.26.06.43.24.39.49-.03.22-.23.45-.53.39Z"/><path class="cls-2" d="M46.22,10.13c-.06.13-.2.26-.3.29-.13.04-.32,0-.43-.08l-.95-.61.56-.85,1,.66c.2.13.24.36.12.59Z"/><path class="cls-2" d="M48.88,14.63c-.38.18-.75.07-1.05-.18-.38-.32-.5-.83-.27-1.3s.65-.87,1.16-1.04c.36-.12.71.06.97.3.32.29.44.71.26,1.12-.21.48-.58.87-1.07,1.1Z"/><polygon class="cls-2" points="41.34 54.76 40.24 55.19 40.25 53.61 40.53 53.89 41.34 54.76"/><polygon class="cls-2" points="27.64 56.44 26.45 56.23 27.28 54.87 27.64 56.44"/><polygon class="cls-2" points="49.65 49.24 48.76 50.07 48.12 48.57 49.65 49.24"/><polygon class="cls-2" points="12.25 15.76 11.55 16.6 10.74 15.31 12.25 15.76"/><polygon class="cls-2" points="41.35 8.88 40.35 8.42 41.45 7.29 41.35 8.88"/><polygon class="cls-2" points="22.28 8.41 21.25 8.82 21.21 7.26 21.83 7.9 22.28 8.41"/><polygon class="cls-2" points="31.11 6.69 30.02 6.73 30.52 5.24 31.11 6.69"/><polygon class="cls-2" points="53.89 21.58 53.43 20.6 55.01 20.47 53.89 21.58"/><path class="cls-2" d="M6.59,26.37l-1.11-.25.18-.78c.08-.34.33-.55.65-.49.3.06.55.32.47.66l-.19.86Z"/><path class="cls-3" d="M40.5,33.13c1.13-1.04,1.8-2.15,1.75-3.71l-.5,1.25c-.26.65-.65,1.24-1.2,1.73.04-.67.03-1.3-.04-1.98-.02-.21-.07-.5-.03-.7l.59-1.08c.32-.58.51-1.21.61-1.9l-1.3,2.4-.14-1.61.07-2.75c-.47,1.08-.6,2.26-.47,3.43.15,1.33.3,2.61.24,3.95-.04.88-.13,1.74-.44,2.57l-.22-2.37c-.06-.59-.22-1.13-.53-1.64l-.3-.73-.49-1.69-.38-1.1c.41-.74.57-1.54.5-2.36l-.64,1.72c-.3-1.08-.3-2.14.01-3.15.12-.39.26-.75.57-1.08.27.76.86,1.22,1.64,1.27.26.02.54.05.77-.18-.9.06-1.88-.34-2.12-1.21.45-.1.86-.11,1.3-.12l-.47-.44c-1.04-.97-.82-2.62.1-3.67.27-.31.56-.6.96-.74-.28.62-.58,1.13-.66,1.75-.13,1.07.48,1.75,1.48,1.99.46.11.58-.43,1.24-.52,1.2-.16,1.96.31,2.69.12.54-.14.94-.55,1.17-1.05.33-.72.28-1.49.03-2.28,1.18,1.12,1.24,2.83.1,3.94-.29.29-.63.51-1.03.63l.52.88c.41.69.9,1.31,1.52,1.81l.55.53c.16.15.06.42-.06.58-.26.34,0,.75-.62.93-.27.08-.59.24-.87.18-.46-.1-.86-.13-1.3.04-1.25.47-1.83,1.85-2.04,3.15-.2,1.21-.44,2.38-.97,3.49l-.71,1.5-.57,1.6c-.18.5-.48.9-.97,1.17l-.09-1.26c-.02-.33.08-.58.15-.89l.57-2.41Z"/><path class="cls-1" d="M37.22,42.53c-.11,1.1.32,1.62.36,2.21,0,.12-.13.19-.23.2h-1.94c-.19-.24-.12-.53-.03-.79l.31-.84c-.16,0-.35.02-.45-.02-.16-.07-.06-.3.02-.4.81-1,1.24-2.22,1.17-3.5.15-.43.16-.85.09-1.29.7-1.3.43-3.1-.43-4.28-.15-.2-.31-.39-.54-.47.7,1.04,1.05,2.15.93,3.35-.02.27-.07.49-.19.78l-.46-1.03c-.48-1.08-1.1-2.05-1.9-2.91l-.55-.59c-.82-.89-1.78-1.59-2.71-2.38l-.74-.63c-.41-.35-.79-.72-1.07-1.18-.3-.5-.17-1.32.19-1.81.42-.56.89-1.06,1.42-1.52.17-.15.37-.25.6-.26.83-.05,1.62-.18,2.42-.42l.49-.09c-.35.56-.66,1.06-.77,1.69-.16.98.03,1.92.56,2.74l.92,1.26-1.63-.74-.78-1.47c-.18-.34-.41-.64-.79-.81l.35.67c.24.45.47.87.62,1.38-.26-.08-.49-.16-.69-.33l-.31-.45-.71-.91c-.03.43.28.7.39,1.13-.45-.2-.81-.53-1.05-.94-.22-.37-.21-.78-.27-1.24-.41.8-.05,1.7.61,2.21.55.43,1.13.73,1.79.96,1.07.37,2.08.85,3.01,1.5.8.55,1.41,1.24,1.94,2.04,1.16,1.75,1.38,3.22,1.16,5.31-.05.5-.15.96-.4,1.41-.44.77-.67,1.6-.76,2.49Z"/><path class="cls-3" d="M27.8,29.81c.16.05.28.17.38.28l.93.93,1.78,1.46c.59.48,1.13.95,1.66,1.54l-1.65-.74-3-.97c-2.82-.92-5.9-1.35-6.64-4.61-.1.35-.07.65-.07,1-.44-.44-.64-1-.82-1.58-.15,1.1.57,1.87,1.23,2.6.41.45.88.8,1.38,1.19-.8-.09-1.53-.33-2.22-.67-.2-.1-.39-.28-.54-.45-.41-.44-.66-.95-.9-1.5-.06.5.17.9.34,1.36-.63-.42-1.16-1.05-1.33-1.8-.05-.31.15-.67.3-.93.38-.68.94-1.23,1.62-1.63,1.3-.77,2.72-.59,4.15-.39s2.86.31,4.32.33l-.38.44c-.68.78-1.05,1.69-.99,2.78l-1.02-1.69c-.2-.33-.5-.62-.91-.71l.57.78,1.32,2.31c-.43-.1-.79-.3-1.09-.59-.28-.28-.59-.52-.82-.86-.35-.53-.31-1.57-1.37-1.79.39.32.58.7.71,1.17-.41-.22-.73-.46-1.23-.45l.93.68c.52.38.93.86,1.36,1.42-1.02-.13-1.93-.58-2.75-1.23.19.45.56.74.95.98.54.33,1.15.47,1.76.67l2.05.68Z"/><path class="cls-3" d="M19.96,38.32c.67-1.13,1.84-2.48,3.22-2.59-.37.68-.76,1.27-1.27,1.79l-1.45,1.48c-1.02,1.05-1.07,3.27-.42,4.68l.48.73c.13.19.21.41.22.64-.08.04-.23.09-.29.09h-1.78c-.09,0-.24-.1-.3-.15-.07-.07-.1-.26-.07-.37l.22-.73s-.01-.14-.04-.16c-.12-.07-.15.15-.34.17-.06,0-.19-.08-.21-.14-.05-.15-.04-.31,0-.45.21-.59.34-1.16.38-1.78.07-1.22-.01-2.42-.16-3.63-.12-1.02.77-1.44,1.02-2.05s.22-1.23.04-1.83l-.61-1.67,1.27-.26,2.06-.47c1.11-.25,2.37-.06,3.48.37l-1.26.29c-.44-.1-.87-.27-1.29-.09.33.05.57.08.88.21l-1.33.33c-.38.1-.75.19-1.08.45.55.06,1.08-.06,1.63-.18l2.51-.56c.57-.13,1.14-.09,1.7.09l1.78.58c-.66.05-1.23.07-1.79.34l-1.92.92c-.73.35-1.43.67-2.21.91-1.2.38-2.55.91-3.45,1.78-.55.53-.97,1.24-.84,2.06.26-1.01.85-1.91,1.83-2.41l-.49.85c-.23.39-.43.77-.48,1.25l.35-.48Z"/><path class="cls-3" d="M26.05,36.2c-.28,1.13-.93,1.85-1.66,2.72-.23.27-.38.56-.39.92-.03.69.2,1.32.52,1.93.3.57.71,1.04,1.13,1.53.35.42,1.15,1.42.91,1.65-.05.05-.18.1-.26.1l-1.6.02c-.09,0-.24-.04-.29-.09-.06-.05-.13-.23-.12-.31l.06-.51c.04-.33-.35-.11-.68-.33-.08-1.07-.43-2.02-1.02-2.9l-1.1-1.65c-.17-.26-.02-.52.17-.71.69-.71,1.25-1.48,1.71-2.35l.45-.73,2.43-1.14,1.03-.46c1.33-.6,2.98-.33,4.31.22.5.2.97.4,1.44.73-.57.03-1.05.11-1.56.27-.88-.42-1.7-.47-2.6-.12l.47.05c.49.06.97.07,1.48.25-.6.47-1.3.59-2.01.75.59.24,1.17.13,1.72-.1.97-.41,2.01-.84,3.06-.57.42.56.75,1.16,1.04,1.82-.86-.15-1.65-.15-2.5-.09-1.27.09-2.5.06-3.73-.24-.78-.19-1.48-.46-2.23-.76-.08-.03-.17.05-.19.12Z"/><path class="cls-3" d="M15.64,35.39c.11.4.4.67.65.99.8,1,.77,2.21-.17,3.11.33-.79.34-1.6-.13-2.29.12.97.08,1.82-.82,2.29.68-.99.27-2.09-.14-3.17-.33-.87-.37-1.8-.05-2.69l.77-1.84c.32-.77.49-1.53.53-2.36.07-1.44.18-3.03.98-4.21.64-.94,1.69-1.48,2.83-1.42.8.14,1.54.34,2.34.66-.64.08-1.23.18-1.85.39-.75-.24-1.53-.09-2.14.42-.98.85-1.19,2.01-1.3,3.26l-.13,1.54c-.07.84-.33,1.6-.71,2.35-.43.83-.65,1.57-.21,2.44l.65,1.01c.22.34.4.69.35,1.1l-.57-.66-.89-.93Z"/><path class="cls-1" d="M38.2,33.96l-.45-.74c-1.34-2.23-4.09-3.88-4.14-6.08-.01-.55.07-1.06.33-1.55s.58-.98,1.06-1.32c-.36,1.45-.04,2.72.69,3.97l1.5,2.2c.48.71.83,1.44.91,2.3l.1,1.21Z"/><path class="cls-3" d="M38.37,41.5c.19-.29.5-.33.81-.4.02-.24-.26-.31-.31-.55l.73-.38c.33-.17.63-.44.79-.77.14-.28.07-.6-.05-.86l-.22-.49c.51-.41.83-.91,1.07-1.51l.17-.44.47,1.26c.13.33.4.67.43,1.03,0,.9-.75,1.36-1.17,2.26l-.58,1.23c-.51.81-1.3,1.35-2.2,1.74-.2-.68-.32-1.57.04-2.11Z"/><path class="cls-3" d="M21.98,31.1l-3.47.92c-.44-1.08-.69-2.41-.38-3.6.31.53.61,1,1.07,1.39.8.68,1.72,1.04,2.79,1.29Z"/><path class="cls-3" d="M37.88,29.06c-.11-.12-.17-.22-.26-.34l-1.04-1.67c-.72-1.44-.27-2.45.31-3.81.08-.18.25-.31.46-.32-.55,1.46-.55,2.62-.1,4.1l.62,2.06Z"/><path class="cls-3" d="M46.45,23.09c-.13-.08-.29-.21-.34-.32l-.34-.69c.55-.16,1.11-.21,1.63-.01-.07.52-.47.87-.95,1.02Z"/></svg>